<mxfile host="65bd71144e">
    <diagram id="lQfovNkgM4vq2SS8UltM" name="第 1 页">
        <mxGraphModel dx="573" dy="553" grid="1" gridSize="10" guides="1" tooltips="1" connect="1" arrows="1" fold="1" page="1" pageScale="1" pageWidth="827" pageHeight="1169" math="0" shadow="0">
            <root>
                <mxCell id="0"/>
                <mxCell id="1" parent="0"/>
                <mxCell id="3" value="" style="line;strokeWidth=2;direction=south;html=1;strokeColor=#FFFFFF;" parent="1" vertex="1">
                    <mxGeometry x="155" y="92" width="10" height="460" as="geometry"/>
                </mxCell>
                <mxCell id="5" value="" style="line;strokeWidth=2;direction=south;html=1;strokeColor=#FFFFFF;" parent="1" vertex="1">
                    <mxGeometry x="400" y="92" width="10" height="460" as="geometry"/>
                </mxCell>
                <mxCell id="7" value="&lt;font color=&quot;#ffffff&quot;&gt;Client&lt;/font&gt;" style="text;strokeColor=none;fillColor=none;html=1;fontSize=24;fontStyle=1;verticalAlign=middle;align=center;fontFamily=Comic Sans MS;" parent="1" vertex="1">
                    <mxGeometry x="110" y="30" width="100" height="40" as="geometry"/>
                </mxCell>
                <mxCell id="8" value="&lt;font color=&quot;#ffffff&quot;&gt;Server&lt;/font&gt;" style="text;strokeColor=none;fillColor=none;html=1;fontSize=24;fontStyle=1;verticalAlign=middle;align=center;fontFamily=Comic Sans MS;" parent="1" vertex="1">
                    <mxGeometry x="350" y="30" width="100" height="40" as="geometry"/>
                </mxCell>
                <mxCell id="10" value="" style="endArrow=classic;html=1;fontFamily=Comic Sans MS;fontSize=18;exitX=0.104;exitY=0.6;exitDx=0;exitDy=0;exitPerimeter=0;entryX=0.25;entryY=0.5;entryDx=0;entryDy=0;entryPerimeter=0;strokeColor=#FFFFFF;" parent="1" source="3" target="5" edge="1">
                    <mxGeometry width="50" height="50" relative="1" as="geometry">
                        <mxPoint x="190" y="240" as="sourcePoint"/>
                        <mxPoint x="240" y="190" as="targetPoint"/>
                    </mxGeometry>
                </mxCell>
                <mxCell id="11" value="&lt;div style=&quot;text-align: left&quot;&gt;&lt;span style=&quot;font-family: &amp;#34;helvetica&amp;#34;&quot;&gt;SYN = 1&lt;/span&gt;&lt;/div&gt;&lt;font face=&quot;Helvetica&quot;&gt;Seq = 1000&lt;br&gt;&lt;/font&gt;" style="edgeLabel;html=1;align=center;verticalAlign=middle;resizable=0;points=[];fontSize=18;fontFamily=Comic Sans MS;" parent="10" vertex="1" connectable="0">
                    <mxGeometry x="-0.3207" y="2" relative="1" as="geometry">
                        <mxPoint x="27" as="offset"/>
                    </mxGeometry>
                </mxCell>
                <mxCell id="12" value="&lt;font style=&quot;font-size: 12px&quot;&gt;第一次握手：客户端发送建立连接的请求，SYN表示连接操作，seq是请求的序列号&lt;/font&gt;" style="rounded=0;whiteSpace=wrap;html=1;fontFamily=Helvetica;fontSize=18;align=left;" parent="1" vertex="1">
                    <mxGeometry x="440" y="80" width="210" height="60" as="geometry"/>
                </mxCell>
                <mxCell id="13" value="&lt;div style=&quot;text-align: left&quot;&gt;&lt;span style=&quot;font-size: 18px&quot;&gt;SYN= 1&lt;/span&gt;&lt;/div&gt;&lt;font style=&quot;font-size: 18px&quot;&gt;&lt;div style=&quot;text-align: left&quot;&gt;ACK = 1&lt;/div&gt;&lt;div style=&quot;text-align: left&quot;&gt;seq = 2000&lt;/div&gt;&lt;div style=&quot;text-align: left&quot;&gt;ack = 1001&lt;/div&gt;&lt;/font&gt;" style="endArrow=classic;html=1;fontFamily=Helvetica;fontSize=12;entryX=0.583;entryY=0.3;entryDx=0;entryDy=0;entryPerimeter=0;strokeColor=#FFFFFF;" parent="1" target="3" edge="1">
                    <mxGeometry width="50" height="50" relative="1" as="geometry">
                        <mxPoint x="400" y="207" as="sourcePoint"/>
                        <mxPoint x="162" y="288.05999999999995" as="targetPoint"/>
                    </mxGeometry>
                </mxCell>
                <mxCell id="14" value="&lt;font style=&quot;font-size: 12px&quot;&gt;第二次握手：服务端响应客户端，SYN表示连接操作，seq是请求的序列号，ACK是确认的位码，ack为确认响应的序列号+1&lt;br&gt;在这一步，服务端证明了自己既可以接收消息也可以发送消息&lt;br&gt;&lt;/font&gt;" style="rounded=0;whiteSpace=wrap;html=1;fontFamily=Helvetica;fontSize=18;align=left;" parent="1" vertex="1">
                    <mxGeometry x="440" y="252" width="210" height="140" as="geometry"/>
                </mxCell>
                <mxCell id="15" value="" style="endArrow=classic;html=1;fontFamily=Helvetica;fontSize=18;exitX=0.597;exitY=0.3;exitDx=0;exitDy=0;exitPerimeter=0;entryX=0.932;entryY=0.3;entryDx=0;entryDy=0;entryPerimeter=0;strokeColor=#FFFFFF;" parent="1" source="3" target="5" edge="1">
                    <mxGeometry width="50" height="50" relative="1" as="geometry">
                        <mxPoint x="180" y="460" as="sourcePoint"/>
                        <mxPoint x="230" y="410" as="targetPoint"/>
                    </mxGeometry>
                </mxCell>
                <mxCell id="16" value="&lt;div style=&quot;text-align: left&quot;&gt;ACK = 1&lt;/div&gt;&lt;div style=&quot;text-align: left&quot;&gt;ack = 2001&lt;/div&gt;" style="edgeLabel;html=1;align=center;verticalAlign=middle;resizable=0;points=[];fontSize=18;fontFamily=Helvetica;" parent="15" vertex="1" connectable="0">
                    <mxGeometry x="-0.057" y="1" relative="1" as="geometry">
                        <mxPoint as="offset"/>
                    </mxGeometry>
                </mxCell>
                <mxCell id="17" value="&lt;font style=&quot;font-size: 12px&quot;&gt;第三次握手：客户端接受到服务端消息后，确认seq为第一次发送给服务端的seq+1，且ACK=1，则再次发送ACK=1，ack=2001给服务端，服务端确认ack的值与第一次发送给客户端的seq+1相同，且ACK=1，则表示连接建立成功&lt;br&gt;&lt;/font&gt;" style="rounded=0;whiteSpace=wrap;html=1;fontFamily=Helvetica;fontSize=18;align=left;" parent="1" vertex="1">
                    <mxGeometry x="441" y="470" width="210" height="150" as="geometry"/>
                </mxCell>
                <mxCell id="18" value="&lt;font color=&quot;#ff0000&quot;&gt;证明客户端可以发送消息&lt;/font&gt;" style="text;html=1;align=center;verticalAlign=middle;resizable=0;points=[];autosize=1;strokeColor=none;fillColor=none;fontSize=18;fontFamily=Helvetica;" parent="1" vertex="1">
                    <mxGeometry x="10" y="110" width="210" height="30" as="geometry"/>
                </mxCell>
                <mxCell id="19" value="&lt;font color=&quot;#ff0000&quot;&gt;证明服务端可以收发消息&lt;/font&gt;" style="text;html=1;align=center;verticalAlign=middle;resizable=0;points=[];autosize=1;strokeColor=none;fillColor=none;fontSize=18;fontFamily=Helvetica;" parent="1" vertex="1">
                    <mxGeometry x="309" y="210" width="210" height="30" as="geometry"/>
                </mxCell>
                <mxCell id="20" value="&lt;font color=&quot;#ff0000&quot;&gt;证明客户端可以接收消息&lt;/font&gt;" style="text;html=1;align=center;verticalAlign=middle;resizable=0;points=[];autosize=1;strokeColor=none;fillColor=none;fontSize=18;fontFamily=Helvetica;" parent="1" vertex="1">
                    <mxGeometry y="440" width="210" height="30" as="geometry"/>
                </mxCell>
            </root>
        </mxGraphModel>
    </diagram>
</mxfile>